<?xml version="1.0" encoding="UTF-8"?>
<svg viewBox="0 0 393 400" xmlns="http://www.w3.org/2000/svg">
 <path d="m75.781 186c-4.9405 2.1763-2.2063 9.1128-1.3125 13.031 2.7018 4.0434 5.5404-1.558 4.875-4.5 0.05079-2.8674 0.95075-8.8298-3.5625-8.5312z" fill="#fff"/>
 <path d="m112.31 186c-4.8722 1.2671-3.4186 8.0541-2.875 11.719 2.8921 3.3197 6.399-2.3313 7.3125-5.1562 0.6893-3.3332 1.4276-7.874-3.5625-6.5938-0.29143 0.01426-0.5857-0.02588-0.875 0.03125z" fill="#fff"/>
 <path d="m137.91 98.562c-5.589 1.3918-7.7963 8.2214-12.085 11.672-3.1116 3.6517-11.997 9.2419-5.8217 14.421 6.1858 6.7188 17.209 6.9015 25.156 3.3438 6.9106-4.1655 5.9057-14.043 4.375-20.812-1.2379-5.0528-6.5289-8.7002-11.625-8.625zm-7.9062 19.375c0.9967 1.5663-0.43117 2.5846-0.5625 0.59375 0.0843-0.18295 0.41067-1.0514 0.5625-0.59375z" fill="#fff"/>
 <path d="m247.03 98.188c-4.6291 0.09978-6.178 9.3877-1.1875 9.75 3.1959-1.2146 10.178-1.8733 9.2812-6.5938-1.809-2.335-5.2505-3.2247-8.0938-3.1562z" fill="#ffffbf"/>
 <path d="m263.53 84.812c-8.3889 1.4635-12.368 12.033-7.5938 18.969 1.731 4.8215 8.5205 6.0962 11.375 1.6875 5.0856-5.458 6.8953-20.625-3.7812-20.656z" fill="#ffffbf"/>
 <path d="m279.56 87.625c-4.0002 1.7588-8.584 5.1954-9.5 9.5625 1.9801 4.1778 7.8813 1.0388 11.344 1 3.4393-1.9486 3.0479-9.2037-0.75-10.594-0.36423 0.01409-0.73211-0.02903-1.0938 0.03125z" fill="#ffffbf"/>
 <path d="m285.53 96.719c-2.4167 3.2456-8.0388 1.6172-11.594 2.9062-4.9036-0.42404-9.2324 7.8625-4.2188 10.312 5.115 0.3624 11.044 2.7445 15.875 0.4375 4.8915-5.3464 3.0999-13.588 3.9688-20.156l-4.0312 6.5z" fill="#ffffbf"/>
 <path d="m266.72 109.81c-3.4084 1.4448-2.6054 7.3676-3.1472 10.78 0.29642 4.1834-1.4936 10.587 0.76424 13.315 6.2943 0.41744 13.671 2.8256 19.383 0.28 3.4332-6.0554 3.8306-13.74 4.8125-20.625-1.8436-4.4283-8.5057-1.443-12.08-2.9527-3.2468-0.13435-6.491-0.81718-9.7322-0.79734z" fill="#ffffbf"/>
 <path d="m274.06 135.09c-3.8754 0.6679-9.8799-1.1938-12.492 1.0713-0.09078 5.4005-1.8443 11.744 0.83584 16.679 4.8311 2.8172 10.994 0.83379 16.344 1.1875 3.5589-5.0156 7.7038-10.634 8.75-16.688-2.3694-4.1808-8.7412-1.4588-12.719-2.256l-0.71886 0.00604z" fill="#ffffbf"/>
 <path d="m95.875 138.22c-7.0723 0.67795-15.172 0.60492-20.906 5.2812 0.76221 4.9713 6.3429 7.7555 10.219 10.469 3.7308 2.7764 9.0104 3.4619 12.25-0.375 3.5817-4.0568 9.6668-5.6606 12.438-10.312-0.50216-5.568-8.4325-4.9981-12.562-5.125l-0.99906 0.04344-0.43844 0.01906z" fill="#804040"/>
 <path d="m128.31 60.938c-5.8453 2.6056-7.4184 10.237-11.562 14.781-14.689 18.911-33.23 35.177-54.656 46.406-5.4227 2.6489-0.29172 8.939 1.8438 12.156 5.9837 8.7458 21.104 7.0814 25.156-2.7188 4.1363-5.7972 0.44476-13.845 3.0312-19.594 15.635-13.621 30.588-28.943 39.156-48.094 0.4976-1.7695-1.2918-3.2376-2.9688-2.9375z" fill="#404040"/>
 <path d="m204.91 24.594c-12.111 3.6767-19.349 15.488-26.416 25.185-1.9856 3.8304-5.1769 7.7558-4.9592 12.315 4.0854 0.9519-3.7154 5.7062 0.75 7.8438 2.0505 1.1975 5.0743-3.0466 2.75 0.4375-2.6372 3.7603 3.6618 2.8842 1.0625 5.2188-2.8773 3.2826 2.6639 4.1128-0.96875 6.3125-2.057 1.9817-7.1342 7.7981-1.6562 8.4688 3.3254-1.498-0.99557 2.2001 1.375 3.4062 3.4092 0.44424 1.5872 1.0994 0.28125 3.25-0.82186 2.3965 2.7021 3.5224-0.03125 5.75-3.3403 8.4104-3.8708 18.362-2.1875 27.094 3.0179 3.6483 7.9334-1.149 11.281-2.1875 14.654-7.3056 26.516-22.98 23.875-40.031-2.1341-18.659-6.793-38.927 2.3125-56.531 2.0246-4.1289-4.1341-7.0727-7.4688-6.5312z" fill="#ffbfbf"/>
 <path d="m15.75 47.75c-0.5022 4.7836 4.7714 8.4842 6.4688 12.875 10.364 15.837 7.4346 36.738 19.281 51.781 4.6471 6.9311 13.747 13.622 22.156 8.7188 5.0623-3.0315 12.58-4.8051 14.75-10.875-0.14671-3.2701-2.483-6.262 0.125-9.5 2.6063-4.5383-4.9437-2.2342-7.9062-2.4375-2.8799 0.73441 2.9414-3.4243 0.1875-5.4688-0.90918-2.3312-5.2072-0.88285-5.3438-1.9688-1.0906-2.7338-2.3623-5.4507-2.0938-9.0625 0.03325-5.3719-2.421-10.577-7.5938-12.719-12.616-7.5573-25.102-16.339-38.25-22.438-1.1213-0.29488-1.498 0.05169-1.7812 1.0938z" fill="#ffbfbf"/>
 <path d="m192.69 26.406c-14.135 10.702-25.808 24.973-39.438 36.094 1.0196-2.405 0.75346-6.2715-2.8125-4.7812-2.0249 0.81558-4.6637 3.4115-6.3125 3.5312 1.6509-2.3576 2.9453-8.5668-1.75-6.9062-13.366 9.397-19.281 25.866-30.247 37.636-5.9315 7.9019-14.744 13.216-20.596 21.082-1.7283 2.8295-2.4105 10.885 2.75 8.5938 1.1091-1.3094 4.9116-1.1765 4.875-0.53125-3.4409 0.72611-10.444 1.653-8.75 6.7812 1.0349 2.0537 6.0599 0.89576 5.9375 1.4688-3.0376 0.56234-11.601 2.0872-8.0312 6.6562 6.6836 3.1662 15.876-0.66637 21.656 4.5312 3.0281 4.3667-3.9702 6.6116-6.7188 8.3438-4.8335 1.6088-7.0194 8.0089-12.219 8.3125-7.2113-0.63383-12.254-6.5962-17.781-10.562-7.9021 4.6591-18.706 11.067-17 21.875 1.7799 1.6697 1.6476 1.6842 0.125 3.7188-1.5888 3.9598 3.8614 4.3044 5.5625 1.5625 2.131-1.6256 4.775-2.423 2.3438 0.78125-1.9308 3.4847-6.0567 7.5864 0.40625 8.3438 8.0082 2.1929 17.314 1.998 24.938-1.4688 4.1178-2.3768 0.02285-6.4904-2.7812-7.8438-1.4875-0.17728-4.2698-3.7341-1.5312-3.0938 9.4574 6.1804 18.413 15.179 30.562 14.656 4.0827 0.41654 8.185 0.31071 12.281 0.3125-4.5663-5.0223-9.994-9.2949-13.344-15.156 4.5464 4.2935 8.2895 10.61 14.531 12.594 4.0456-0.72426 9.3787-2.6899 10.781-6.875-1.162-4.7164-7.8262-4.7865-11.312-7.375 4.4549 0.76524 9.3312 5.6144 13.812 3.2812 3.5217-4.7928 1.0261-11.628 0.6875-17.094-1.1369-3.6593-0.4559-2.5616 1.5312-1.1562 5.4787 2.0021 11.637-2.1574 15.406-5.2812-3.3143 4.7487-9.7379 5.7049-13.906 8.9688-1.2953 5.2237-2.1682 11.113-1.3125 16.406 3.2248 3.4617 8.0302-1.3203 11.531-2.3438 1.8672-0.76513 4.5425-2.515 5.7188-3.0312-3.7758 3.5842 2.8603 6.1927 3.4062 9.875 2.2754 3.2317 0.59239 10.906 5.7188 10.812 4.236-4.1427 2.0807-11.369 3.5625-16.719 1.7126 0.04028 2.7805 6.8402 5.9062 7.0938 4.4118-1.5304 1.0889-8.1447 2.0312-11.75-0.10017-3.5352 3.2304 2.4388 4.375 3.0938 2.9739 2.0901 4.9324 9.0767 9.2812 6.9062 2.1201-5.4627-1.0921-11.739-2.6562-17.062-4.2281-11.245-12.776-19.799-19.875-29.094-2.7932-6.7115 0.20171-14.394 0.84375-21.312 2.4607-6.7094 0.87648-13.837-1.3438-20.375-5.4517 0.64316 0.67951-3.7114 1.5-6.2188 4.1649-6.6669-3.706-13.467-2.8276-19.832 3.827-14.026 14.833-24.232 23.515-35.168 0.64005-2.9699-0.81701-2.8629-3.0312-2.2812zm-47 61.156c2.0782 0.11663 3.9987 1.42 5.9062 2.2188-0.95356-0.61334-6.7138-1.7077-5.9062-2.2188zm-1.4062 1.0625c-2.424 2.016-8.3405 8.4377-2.3438 9.8125 5.8412 1.8632 9.9104 8.4572 9 14.656 0.27646 6.5445-1.0848 15.615-9.0625 16.625-4.9433 1.4192-10.274 0.80634-15.25 2.3438 4.0652 4.4001-0.6606 2.5973-1.75 4.2812-6.1397-4.2534-8.1602-12.186-13.719-16.906-3.5246-0.17949-5.9383-3.3362-5.2188-6.9375 0.35133 0.21649 1.3681 5.5168 4.4375 5.5625 9.5657 2.2406 15.142-7.6746 20.719-13.469 4.7815-5.4629 8.708-11.841 13.938-16.812l-0.66436 0.74741-0.08564 0.09634zm13.781 47.156c3.5755 1.866 10.498 1.1108 12.625 2.4688-3.4619 0.35311-9.2481 1.1007-8.75 3.4375-0.99298-2.8528-5.211-3.4187-6.375-5.4062 0.69108-1.064 1.2358-1.2669 2.5-0.5z" fill="#bf8040"/>
 <path d="m87.125 51.156c-4.1089-0.2843-3.2866 5.0934 0.1875 5.4375 3.708 1.9476 10.177 3.466 12.219 5.5938-5.3308 1.6612-12.16-0.67156-16.75 2.7188-1.9794 4.705 5.926 3.6444 7.25 4.3438-6.5645 4.6932-15.223 7.8908-19.344 15.062 0.11611 4.7769 5.8635 1.9754 8.0625 0.4375-1.833 3.7668-5.9281 6.8232-5.9375 11.188 2.7888 2.5354 6.2894-1.9963 8.4688-2.2812-1.7045 4.8422-4.2454 10.814-2.1875 15.844 4.675 2.371 8.3549-4.0333 11.965-6.0723 12.457-11.027 25.78-22.154 33.816-36.959 1.0122-4.7704-5.7579-3.4277-8.308-5.4224-9.7942-3.1681-19.05-9.0801-29.442-9.8901z" fill="#bf8040"/>
 <path d="m27.562 48.094c-2.1073 3.8975 4.4119 5.6201 6.7812 7.7812 8.0806 5.546 17.528 8.965 25.594 14.312 2.7546 5.3294 3.0758 12.36 6.2812 17.062 3.9521 0.68298 5.0987-4.9952 8.0938-6.75 2.0946-2.6464 9.0045-6.1537 5.0938-10.031-14.099-11.849-32.702-15.94-49.594-22.875-0.7572-0.04644-1.8794-0.50635-2.25 0.5z" fill="#bf8040"/>
 <path d="m157.69 171c-2.524 0.94154-5.2234 2.5916-6.75 4.8125 1.4268 5.1175 8.1142 7.2149 11.188 11.531 1.5247 2.9262 7.1967 4.9584 6.3438 0.03125-1.6497-5.807-3.6389-15.262-10.781-16.375z" fill="#bf8040"/>
 <path d="m92.25 180.09c-4.1293 3.9572 5.2785 8.2416 1.4688 13.156-1.212 2.8076-7.0814 7.8176-1.3125 8.6562 2.655-0.33163 6.5252-3.4567 8-2.8125-0.48963 2.9618-4.0753 6.8288-0.6875 9.125 3.5352-0.12178 4.9479-5.1816 6.75-6.1875 0.76644 3.8047 0.30312 11.44 5.875 11.219 3.9863-1.7561 2.0319-6.9694 3.3125-10.031 2.631 2.14 7.4528 7.2676 10.562 3.5625 1.0612-2.7373-3.3362-7.2339-1.6875-8.8125 2.1576 4.5155 9.689 1.3982 7.2812-3.2812-2.2556-3.4034-1.6888-10.413-7.375-8.4688-4.9656-0.44838-8.4192 3.5056-9.3125 8.0625-0.90372 1.5394-2.3747 4.677-4.3438 4.3438-0.41498-5.4024-0.43877-12.886-7.0877-14.436-3.6525-1.2556-7.7678-4.584-11.444-4.0957z" fill="#bf8040"/>
 <path d="m87.656 182.78c-4.5165 0.56068-9.9026 5.7142-7.8438 10.469 3.8672 2.1593 11.264 5.662 13.906 0.21875 1.4936-3.8882-1.6613-10.515-6.0625-10.688z" fill="#bf8040"/>
 <path d="m59.062 183.62c-3.3328 2.0401-6.147 6.9796-5.1562 10.969 1.8852 4.0622 4.1338-0.16952 4.7188-2.4688 2.772 1.8124 6.2185 9.2657 9.3125 4.7188 0.24042-1.9752 0.36325-2.3028 1.75-0.6875 4.9105 0.99348 5.1408-8.2388 0.875-9.4688-3.9474-0.64618-7.5557-2.8552-11.5-3.0625z" fill="#bf8040"/>
 <path d="m70.031 139.88c-4.9218 0.9918-6.8504 6.8095-11.046 9.2475-7.6897 6.8729-15.223 15.342-17.766 25.565 1.1121 4.3347 5.268-0.28559 6.75-0.34375 2.5568 3.6216 6.8675 0.07886 6.6562-3.4062 1.1088-6.3788 2.1118-13.604 8.3125-17.188 3.7414-4.0348 10.424-5.7961 12.469-11.094-0.05572-2.614-3.3895-2.8856-5.375-2.7812z" fill="#bf8040"/>
 <path d="m52.188 174.31c-4.7098 1.6962-5.7048 7.8641-6.0625 12.281 3.79 3.4475 6.9913-3.2983 9.5-5.7188 1.8141-2.4821-0.10131-7.0631-3.4375-6.5625z" fill="#bf8040"/>
 <path d="m55.562 180.44c-3.6953 1.4891-7.048 8.5813-2.4062 10.719 3.4204-2.1599 5.4-6.9346 5.3438-10.938-0.94379 0.15398-2.0788-0.27691-2.9375 0.21875z" fill="#bf8040"/>
 <path d="m341.12 4.4062c-10.233-0.11676-21.478 1.2886-28.531 9.4688-17.744 16.045-24.007 40.13-30.969 62.156-1.63 4.8717 2.186 8.9819 1.6562 13.875 2.7187 4.1245 5.4094-1.9603 5.5524-4.6097 4.2151-17.809 8.7174-36.591 21.854-50.203 7.5579-8.1284 18.917-17.315 30.812-13.438 11.683 5.3514 12.949 19.18 14.269 30.4 1.8583 12.21 0.73536 25.07 4.0433 36.944 2.8283 5.9114 11.092 7.8627 15.875 3 8.046-7.9995 9.4161-20.236 11.562-30.875 2.5474-17.39-2.5736-37.102-16.688-48.25-8.8144-4.76-19.208-8.9688-29.438-8.4688z" fill="#bf8040"/>
 <path d="m230.62 336.03c1.0454 8.244-0.19295 18.182-6.5 23.938-6.0142 1.9787-14.46 0.10404-18.719 5.625-0.6456 5.0519 6.2758 6.6103 9.875 7.9375 6.2912 2.6494 10.003-5.2113 15.25-7.4062 5.2129-2.8017 13.271-4.7428 13.031-12.125 0.32175-6.7371-0.91612-13.427-1.4375-20.125-2.6789 1.1224-12.981-2.4368-11.5 2.1562z" fill="#bf8040"/>
 <path d="m123.34 367.12c-3.4295 1.8909-7.8468 5.3204-7.875 9.5625 1.5324 4.1284 3.2162 5.3323 9.3694 8.0396 0.1178-6.2989 0.71705-10 1.1931-16.04-0.24448-1.1337-1.596-1.8642-2.6875-1.5625z" fill="#bf8040"/>
 <path d="m165.25 329.91c-6.2096 1.9215-3.9523 10.39-5.3115 15.211-0.57287 8.0658-2.8951 18.592-12.313 20.351-6.9039 2.668-17.665 0.72586-21.531 8.4375-2.8885 5.1019 1.8016 10.37 6.9062 11.062 4.3961 0.44929 9.8928 3.4684 13.875 1.3125 1.82-4.8965-0.9937-12.807 5.625-14.875 6.8899-2.8056 15.841-5.1051 17.844-13.375 1.9806-8.4965-0.46383-17.536-1.5938-26.031-0.43115-1.4856-1.9974-2.3252-3.5-2.0938z" fill="#bf8040"/>
 <path d="m272.34 155.66c-4.3813-0.18852-10.479-0.06786-11.5 5.3438-4.422 15.003-8.8073 30.277-13.375 45.156-1.4462 2.2881 3.9728 5.1019 0.125 4.8438-4.6144 1.3327-5.8508 7.8561-11.406 7.7188-4.8306-0.15415-9.1907 1.7374-13.719 2.9062-2.396-4.2588-8.0244 0.70663-11.312 1.5625-2.6168 0.7087-6.1516 3.7811-8.25 3-0.1603-2.3037 8.9483-11.915-3.3438-5.125-4.3098 2.3951-8.7398 5.782-13.531 6.7188 0.32125-3.1649 7.5893-11.512-5.5312-3.6875-8.5399 5.3022-19.277 11.479-29.438 6.7812-4.1068 1.4048-5.365-4.2972-6.6875-7.125-3.5233-8.4014-0.18798-20.125-8.4688-26.094-5.0542-1.1572-3.3812 6.2342-3.8278 9.2182 0.12574 19.777-0.30017 39.718-5.1098 58.907-0.85773 9.3532-3.8318 21.243-2.0271 30.556 3.8887 3.4706 6.7339-6.2341 8.5583-7.993 0.98667 3.9469 3.4344 24.889 4.4986 15.333 2.1233 5.8015 2.3141 9.2927 5.8764 14.542 1.842 5.9267 5.5988 2.0325 4.125-4.625 2.3387 3.2574 3.3078 10.791 8.7188 10.344 1.8656-0.57874 1.6184-4.0891 2.5312-0.46875 0.62894 3.7984 6.0955 5.2426 7.5312 1.1875 1.4023-3.271 1.3906-6.9224 1.4375-10.438 0.76574 15.454 4.1088 31.011 2.5938 46.469-2.0928 6.9485-11.082 7.5412-16.219 11.406-4.5734 1.4379-8.0871 6.4152-5.2812 10.906 2.7932 4.0517 9.2251 2.909 12.969 1.125 7.1505-1.189 9.3753 7.7376 14.281 10.969 2.0283 3.0855 5.6601 3.371 7.6286 0.12093 2.6156-1.8026 5.8343-7.931 9.2464-5.7147 5.534 5.1468 13.294-1.593 14.031-7.6875 0.94244-7.4045-7.3675-12.849-14.188-12.438-5.3386-0.64121-12.029 0.18894-16.5 0.4375 2.3804-3.1746 6.7203-3.4512 10.156-4.8438-1.1001-1.9987-5.4293-4.3624-4.7188-6.5312 3.4047-4.8355 0.90962-11.978 1.8223-17.562 0.05312-7.6876-0.05141-15.386 0.42774-23.063 0.37837 2.9089-1.306 10.899 3.7812 9.0938 1.6546-1.211 4.9387-4.7161 4.5312-0.5625-2.0806 10.252 5.8062 2.3015 7.125-0.5 1.5829-1.2678 0.41516 3.3279 1.6562 4.375 1.4104 3.4149 5.4267 1.6069 6-1.2188 1.1918-0.67802 1.2422-5.8081 2.2812-2.4688 0.32254 6.0505 9.7123 7.4665 8.7188 0.3125 0.61712-2.9066 2.436 2.7505 4.4688 2.375 5.289-0.92624 0.99039-8.059 0.96875-11.312-1.2983-11.937-0.63103-24.344 0.59375-36.281 3.2318-8.2481 2.3908-17.92 5.0312-26.125 1.5438 1.1157-0.62893 5.8742-0.51907 8.047-3.6637 19.716-7.8726 40.492-3.1059 60.328 2.7911 8.249 16.462 9.1309 19.438 0.53125 2.1695-0.93552 2.0438-4.3479 3.5938-5.0938-3.0886 5.7915-6.4936 11.419-5.2786 18.31-0.77952 7.6284 0.71862 16.398-1.9401 23.378-6.9113 5.6899-19.094 7.1236-20.906 17.375 2.0467 4.2636 8.8018 5.6463 13.188 4.25 2.2038-1.7442 7.1268-3.1031 7.1562 1.125 1.3234 3.4912 2.3747 9.3363 7.4375 8.3438 5.1341-0.1232 3.8759-6.901 7.125-9.5625 1.2441-1.1901 3.4061 2.1705 5.5625 1.4375 5.2175 0.53128 14.144-2.8836 12.062-9.4688-3.6077-7.6771-11.8-12.61-15.745-19.687-0.2524-6.0702-0.1816-12.284 2.9949-17.563 2.4527-7.178 5.4447-14.14 6.6562-21.75 3.7121-6.0436-4.4386-11.145-9.5938-11.812-1.0089-6.5979 4.9287-10.726 7.5938-16.062 3.5152-12.026 1.4316-25.082 1.9375-37.5 0.73968-6.0081-4.038-10.604-3.1875-16.531-1.007-13.48-3.1178-27.431-0.84375-40.781 2.3864-5.25 3.127-11.281 6.125-16.219 1.4661-7.0024 4.5471-13.826 5.5625-21.062l-2.5938 0.125z" fill="#bf8040"/>
 <path d="m174.33 397.37c-2.014-2.3375-4.7947-5.4875-6.1792-7-2.5533-2.7893-6.1652-3.5764-7.9986-1.7431-1.3014 1.3014-30.511-0.43982-35.393-2.1098-1.925-0.65842-4.7724-1.6487-6.3275-2.2005-4.497-1.5959-6.0116-4.7238-4.6806-9.6666 0.61246-2.2745 1.9661-4.988 3.0081-6.03 2.6213-2.6213 9.5676-4.3077 14.975-3.6355 5.8579 0.72826 17.415-1.5231 20.844-4.0607 4.2507-3.1451 5.0196-5.9398 5.2792-19.187l0.24258-12.383-2.9203-1.5126c-1.6062-0.83191-3.188-1.9232-3.5152-2.4252s-1.6969-0.63605-3.0438-0.298c-2.999 0.7527-4.9514-1.1872-7.897-7.8463-1.6309-3.6869-2.4067-4.5301-3.4055-3.7011-1.9793 1.6426-3.3383-0.69549-4.055-6.9762-0.3436-3.0112-0.86568-6.6-1.1602-7.975-0.51055-2.3837-0.60575-2.3256-2.0465 1.25-1.8327 4.5482-2.7637 4.6822-4.8259 0.69446-1.1398-2.204-1.5846-5.961-1.5963-13.481-0.00891-5.7342 0.23505-10.832 0.54213-11.329s1.0125-3.9928 1.5676-7.7687c4.9602-33.741 5.2012-36.155 4.7559-47.64-0.25111-6.476-0.72406-12.042-1.051-12.369s-1.3634 0.17458-2.3033 1.1145c-1.6617 1.6617-4.817 1.7047-8.5004 0.11583-1.2136-0.52351-1.7566-3.8e-4 -2.1885 2.1086-0.31597 1.5426-1.5396 3.3945-2.7192 4.1153-1.8064 1.1038-2.5259 1.0607-4.5615-0.27305-1.3292-0.87093-2.4236-2.1356-2.4321-2.8105-0.03896-3.1217-1.5476-3.7917-4.8395-2.1495-5.2851 2.6366-7.354-0.42353-4.6484-6.8754 0.68187-1.626 0.32178-1.5879-3.7653 0.39771-4.9111 2.386-8.2757 1.9976-7.4669-0.86194 0.27036-0.95582 0.65891-2.3618 0.86346-3.1245 0.40183-1.4982-4.7631-3.457-6.4182-2.4341-0.53538 0.33088-0.71987 2.9352-0.41629 5.8766 0.38521 3.7323 0.12869 5.8196-0.87421 7.1132-1.3703 1.7675-1.4722 1.7626-2.9434-0.14304-0.83819-1.0857-1.7944-3.6647-2.1248-5.7311-0.7999-5.0023-2.2076-6.0529-6.1278-4.5732-2.7 1.0191-3.4122 0.9174-5.2553-0.75062-1.9982-1.8084-2.1929-1.8209-3.0998-0.20033-1.0289 1.8385-4.8683 2.4136-4.8683 0.72919 0-0.55-0.45-1-1-1-1.4702 0-1.1958 7.682 0.5 14 2.6671 9.9365 2.0658 11.051-6.7348 12.479-2.0914 0.33942-5.1596 1.9075-6.9729 3.5637-1.781 1.6266-3.5572 2.9576-3.9471 2.9576s-1.6855 1.3713-2.8789 3.0473c-1.8706 2.6271-2.0079 3.4382-0.99543 5.8825 0.64592 1.5594 2.4989 4.1042 4.1177 5.6551s3.4129 4.6413 3.9869 6.8675 1.3016 4.9476 1.617 6.0476c0.5732 1.9994 0.57267 1.9994-1.6621 0.0022-1.2295-1.0988-4.0454-5.0444-6.2576-8.768s-4.416-7.0137-4.8974-7.3112-0.87532-2.1488-0.87532-4.1139c0-2.7267 0.77085-4.3114 3.2548-6.691 1.7901-1.715 3.8055-4.3556 4.4786-5.8681 0.87785-1.9726 1.9527-2.75 3.8024-2.75 1.4182 0 4.6191-0.51379 7.113-1.1418l4.5343-1.1418-0.58212-4.1082c-1.5801-11.152-1.824-19.635-0.60656-21.101 0.86149-1.038 0.90134-1.5068 0.12809-1.5068-0.61735 0-1.1224 0.4822-1.1224 1.0716s-1.1005 0.92735-2.4456 0.75108c-1.7053-0.22347-3.5214 0.72229-6 3.1246-1.9549 1.8948-3.5732 3.9193-3.596 4.4989-0.08977 2.2726-6.8358 8.5724-11.168 10.429-5.0093 2.1473-5.5831 2.7763-7.7902 8.5412-0.825 2.1549-2.0625 4.1051-2.75 4.3339-1.7401 0.579-1.5858-3.2272 0.19064-4.7015 0.79236-0.6576 1.5799-2.4002 1.75-3.8724 0.24631-2.1312 1.4196-3.2177 5.7563-5.3304 3.824-1.863 7.3506-4.8424 11.836-10 3.5142-4.0405 6.8324-8.1639 7.3739-9.1629 1.0556-1.9478 2.8243-11.684 2.1226-11.684-1.5027 0-11.623 10.081-12.757 12.708-1.7796 4.1209-6.4396 6.1004-17.523 7.4432-6.3215 0.76589-9.1097 1.5833-10.879 3.1894-2.8081 2.5492-5.1211 7.5751-5.1211 11.127 0 1.3927-0.45 2.5321-1 2.5321s-1-1.9478-1-4.3286c0-5.2583 4.63-12.907 8.7691-14.487 1.502-0.57318 6.1059-1.2266 10.231-1.4522 7.7623-0.42434 14-2.7134 14-5.1377 0-0.74462 2.025-3.0132 4.5-5.0413 3.615-2.9622 4.5009-4.3134 4.5044-6.8705 0.00607-4.4321 4.1712-15.873 7.6175-20.924 1.583-2.3201 6.5907-7.9165 11.128-12.436s8.25-8.4036 8.25-8.6304-1.5119-2.0156-3.3598-3.9749c-2.1857-2.3175-3.5877-4.9873-4.0118-7.6399-0.59513-3.7218-0.91442-4.0774-3.6601-4.0774-3.8325 0-10.022-3.8926-13.555-8.5249-4.3184-5.6617-7.0242-12.389-9.9079-24.634-4.6715-19.837-10.069-30.829-20.617-41.984-8.7542-9.2584-9.918-12.13-5.3776-13.27 1.8355-0.46067 5.8022 0.88668 14.75 5.01 6.7316 3.1021 12.689 5.9825 13.239 6.401s3.7 1.5141 7 2.4347c7.2862 2.0326 22.599 8.5204 31.671 13.419 6.4686 3.4925 6.7315 3.5472 8.6606 1.8013 1.0943-0.99029 4.5044-2.1418 7.5781-2.5589 6.6212-0.89852 7.6978-1.6029 3.8867-2.543-1.5381-0.37941-5.4035-1.8536-8.5898-3.2761-7.9003-3.5268-7.5171-5.6634 1.0891-6.0729 8.0011-0.38075 16.397 1.7606 27.505 7.0153l8.8006 4.1632 5.2412-1.7815c2.8826-0.97984 5.8974-1.6358 6.6994-1.4576s3.94-1.5167 6.9734-3.7664c9.2162-6.8352 12.219-6.5955 8.4591 0.67547-1.7676 3.4183-0.99908 3.7074 2.5257 0.95034 3.3738-2.639 6.4038-2.6522 5.7168-0.02485-0.28408 1.0863 7.2254-5.3262 16.688-14.25 22.112-20.854 36.303-31.68 36.67-27.975 0.26152 2.6395 1.0838 5.677 2.0007 7.3901 0.84984 1.588 1.3529 1.7497 2.4947 0.80199s1.4303-0.8582 1.4303 0.43543c0 0.89234 0.41137 1.6224 0.91416 1.6224s-0.36251 2.6355-1.9229 5.8567c-6.0403 12.47-6.858 21.049-4.4494 46.683 1.7238 18.346 1.7316 19.752 0.13841 24.806-3.713 11.779-14.947 24.322-25.68 28.673-6.7149 2.722-6.4105 2.2468-3.4708 5.4188 3.4747 3.7492 9.6476 12.895 12.415 18.394 4.8592 9.6563 8.2229 32.17 4.8062 32.169-1.2371-4.9e-4 -8.6227-7.9572-11.998-12.926-1.7154-2.5251-1.7362-2.4279-1.1033 5.1765 0.74828 8.9905 0.2054 9.4196-5.4515 4.309l-3.8088-3.441-1.1696 5.5761c-0.64328 3.0669-0.99925 5.8528-0.79106 6.191s6.4612 0.2109 13.895-0.2829c10.26-0.68146 15.344-0.57326 21.097 0.44902 4.169 0.74076 7.5801 1.6785 7.5801 2.0838s-7.9875 0.65611-17.75 0.55723-20.994 0.0424-24.958 0.31397l-7.2079 0.49376-6.2921-6.5743c-7.1745-7.4964-13.989-11.215-16.213-8.8469-1.8331 1.9521-2.8058 15.252-1.2628 17.266 0.86022 1.1227 4.304 1.7943 12.61 2.4591l11.426 0.91462 3 3.7396c3.3351 4.1573 8.7114 7.8677 12.898 8.9014 2.9808 0.73602 3.6263 2.3674 1.2912 3.2635-2.7199 1.0437-8.5335-1.7628-13.999-6.7582-2.9945-2.7368-6.819-5.3702-8.4987-5.852-4.1264-1.1834-19.043-2.4384-19.043-1.6021 0 0.36769 0.47347 4.9147 1.0522 10.104 0.94821 8.5036 1.3539 9.7375 4.1061 12.49 4.1796 4.1796 8.0171 5.9956 12.67 5.9956 5.217 0 9.3326-1.8292 20.26-9.0047 8.9004-5.8443 12.912-7.31 12.912-4.7178 0 0.70263-0.7209 2.3067-1.602 3.5647-2.3705 3.3844-0.94352 3.7846 3.354 0.94064 4.9119-3.2506 11.851-6.7828 13.325-6.7828 1.1796 0 0.90335 2.7614-0.65003 6.4973-0.79117 1.9028-0.71442 1.9232 1.6214 0.4331 2.423-1.5457 11.341-5.1973 15.702-6.4295 1.6706-0.472 2.25-0.21753 2.25 0.98823 0 1.4702 0.28031 1.4583 2.9621-0.12583 2.2442-1.3257 2.7018-2.0633 1.8883-3.0436-2.4845-2.9937 1.7706-8.3198 6.6469-8.3198 0.77179 0 1.8419-0.78375 2.378-1.7417s1.33-1.3863 1.7643-0.95204c1.3079 1.3079-1.1663 4.1726-3.8865 4.5001-3.0437 0.36641-6.5254 3.8288-5.1795 5.1507 1.8484 1.8154 7.8203-0.41791 10.079-3.7691 2.6677-3.9586 7.8299-19.861 9.962-30.688 0.86647-4.4 2.2478-10.025 3.0696-12.5 0.87288-2.6288 1.6654-9.6977 1.9059-17 0.22647-6.875 1.0942-17.225 1.9284-23s1.3963-11.332 1.2492-12.349c-0.23768-1.6437-2.8958-3.0683-9.8882-5.2992-0.94015-0.29996-3.0954 0.77754-5.132 2.5657-1.9312 1.6956-4.0143 3.0829-4.6292 3.0829-1.4885 0-1.4813-12.108 0.00914-15.38 0.95234-2.0902 1.753-2.4464 5.163-2.297 3.7487 0.16414 4.0963-0.05009 4.8852-3.0107 0.46985-1.7631 2.5097-4.5559 4.5649-6.25 4.6312-3.8174 8.9829-4.0507 12.175-0.65249 2.2306 2.3743 2.2926 2.3817 4.1789 0.49539 1.9277-1.9277 5.0282-9.2996 13.211-31.411 11.253-30.407 23.715-46.537 39.5-51.126 8.7033-2.5301 25.509-1.4786 34.694 2.1707 13.268 5.2713 19.409 11.521 25.124 25.566 3.6763 9.0348 4.4815 26.797 1.7625 38.883-2.4438 10.862-7.8446 21.823-12.16 24.679-5.0059 3.3126-10.873 3.9829-14.094 1.6103-3.6506-2.6887-6.0358-10.238-6.0908-19.276-0.05072-8.3402-2.5198-32.461-3.9092-38.189-1.8902-7.7934-7.3601-13.545-14.479-15.225-4.4187-1.0427-13.496 2.0877-19.583 6.7534-11.313 8.6715-18.741 22.141-24.078 43.661-3.8021 15.331-4.1313 17.858-2.6322 20.202 1.3072 2.0441 1.2708 2.9303-0.32926 8.022-1.4248 4.534-1.5394 5.9393-0.55105 6.7596 0.87747 0.72824 1.0059 2.1455 0.43264 4.776-1.0715 4.9169-2.7298 13.058-3.3476 16.435-0.37618 2.0558-0.02772 2.8418 1.4709 3.3174 2.0328 0.64518 2.6215 3.3769 1.0858 5.0385-0.4829 0.5225-2.3416 3.65-4.1305 6.95s-4.6931 8.0332-6.4538 10.518c-2.0808 2.9368-4.9878 10.112-8.3052 20.5-5.7584 18.031-7.2324 24.438-7.2324 31.436 0 6.7629 2.9025 30.995 3.9461 32.945 0.47283 0.8835 1.4041 6.8864 2.0694 13.34 1.7895 17.357 0.32425 28.684-5.0743 39.224-3.805 7.4291-3.9605 8.0495-2.3188 9.25 0.96787 0.70773 2.2703 1.2868 2.8943 1.2868s2.1678 1.0999 3.4308 2.4442c3.0289 3.2241 2.4434 7.1053-4.0271 26.698-6.5222 19.749-6.4875 20.803 0.91743 27.823 5.68 5.385 11.162 14.137 11.162 17.82 0 1.9742-5.0707 7.2396-8.8372 9.1764-1.4897 0.76603-4.1006 0.95931-7.2002 0.533-4.8361-0.66513-4.8712-0.64943-6.3282 2.8377-3.4407 8.2347-13.634 7.2216-13.634-1.355 0-4.0984-1.602-4.973-5.9677-3.258-3.3969 1.3343-4.3788 1.3217-9.3386-0.12013-4.8934-1.4226-5.677-2.0188-6.6911-5.0914-1.349-4.0874-1.3816-4.1132-6.3656-5.0482-3.7692-0.7071-3.8228-0.67532-2.6283 1.5567 1.6009 2.9912 0.08126 8.1787-4.0776 13.92-2.8495 3.9336-3.366 4.2221-6.7582 3.7749-2.0201-0.26629-4.5828-0.7859-5.6948-1.1547-1.5107-0.50098-3.1329 0.35521-6.4164 3.3865-5.6302 5.1978-7.876 5.1631-12.491-0.19302zm11.305-4.3473c3.7005-3.9324 4.7093-4.4971 6.9752-3.9045 1.4569 0.38102 4.2001 0.76229 6.0959 0.84726 2.8834 0.12924 3.8234-0.401 5.75-3.2434 2.8797-4.2486 2.8906-6.2339 0.05824-10.555-1.6025-2.4447-3.4756-3.7692-6.5461-4.6288-5.5522-1.5545-13.804-1.5375-18.578 0.03826-2.0707 0.68338-4.0238 0.98355-4.3404 0.66702-0.99321-0.99321 2.0552-3.8716 5.9494-5.6175l3.7399-1.6767-2.4899-2.3391c-3.0022-2.8204-3.2144-4.4132-0.49315-3.7016 1.8402 0.48123 1.9382 0.19646 1.25-3.6334-1.0166-5.6577-0.66105-37.447 0.45962-41.09 0.49649-1.6142 1.4463-3.116 2.1108-3.3375 0.91583-0.30528 1.0462 1.7034 0.5388 8.3039-0.66303 8.6258-0.64975 8.6961 1.4318 7.5822 1.1555-0.61843 2.3776-1.572 2.7157-2.119s1.4882-0.99462 2.5557-0.99462c1.5743 0 1.9431 0.70848 1.9521 3.75l0.01109 3.75 2.5614-3.25c3.5483-4.5023 5.4164-4.2544 5.4164 0.71862 0 3.1157 0.32217 3.845 1.499 3.3934 0.82447-0.31638 1.8656-1.9898 2.3136-3.7186 0.94498-3.6468 4.4199-4.4365 5.0313-1.1434 0.84751 4.565 5.1561 6.3386 5.1561 2.1224 0-1.3076 0.62659-2.8976 1.3924-3.5332 1.1031-0.91545 1.8135-0.5776 3.4185 1.6257 1.1143 1.5297 2.306 2.5014 2.6482 2.1592s-0.13257-3.9403-1.055-7.9958c-2.0394-8.9664-1.5006-32.051 1.024-43.878 0.88055-4.125 2.1822-10.875 2.8924-15 1.088-6.3184 1.5977-7.5 3.2354-7.5 2.366 0 2.3408 0.88601-0.38395 13.5-3.8327 17.743-4.5409 23.482-4.5662 37.001-0.02231 11.942 0.2316 14.032 2.1992 18.096 2.2709 4.6911 5.3693 6.9026 9.6705 6.9026 2.809 0 3.8685-0.97295 8.5216-7.8254 3.4645-5.1021 6.0028-7.194 6.0028-4.9469 0 0.64068-1.1657 2.847-2.5905 4.903-3.6908 5.3258-4.4215 9.8078-3.7328 22.895 0.72619 13.8-0.22802 16.534-6.8631 19.664-12.202 5.7566-14.293 6.9828-14.022 8.2236 0.16045 0.7354-0.48448 2.1948-1.4332 3.2431-1.6317 1.803-1.6319 1.9988-0.00373 3.6248 1.6627 1.6605 5.8284 1.9158 16.045 0.98347 2.6608-0.24282 3.0377 0.14691 4.5801 4.7354 1.3592 4.0437 2.1617 5.0577 4.1959 5.3015 2.1827 0.26164 2.7992-0.38185 4.6637-4.8683 1.9053-4.5847 2.4038-5.088 4.4047-4.4472 5.0192 1.6073 8.6038 1.6442 11.553 0.11895 6.4784-3.3501 5.091-8.0512-5.3224-18.034-7.1105-6.8169-7.4746-7.3832-7.4746-11.625 0-4.9523 0.59213-7.2465 4.5027-17.446 3.2432-8.4586 6.4973-20.033 6.4973-23.11 0-2.8916-4.4539-6.3902-8.1349-6.3902-2.2216 0-2.8651-0.46037-2.8651-2.0497 0-2.4959 2.4859-7.4969 5.5548-11.175 4.2363-5.0772 4.9452-9.1369 4.9452-28.32 0-15.523-0.24533-18.419-1.7554-20.723-1.9938-3.042-3.1574-16.433-3.1484-36.232 0.00537-11.817 0.08349-12.228 5.1342-27 2.8208-8.25 5.4236-16.624 5.784-18.609l0.65527-3.6086-4.247-0.67913c-2.3358-0.37352-4.5421-0.32463-4.9028 0.10864-0.80015 0.96119-4.2466 12.795-7.067 24.265-1.1465 4.6627-3.6055 12.527-5.4645 17.476-3.3393 8.8901-3.3565 9.0203-1.4341 10.811 2.5999 2.4222 2.4546 2.9395-0.71815 2.5565-2.0929-0.25263-3.0205 0.32156-4.3268 2.6784-2.2179 4.0014-5.6348 5.6685-10.618 5.1802-2.9258-0.28672-4.7967 0.1267-6.5 1.4364-2.988 2.2975-7.3632 2.5544-6.5301 0.38343 0.92484-2.4101-1.3289-1.7526-10.058 2.9342-6.8249 3.6645-8.389 4.1683-9.349 3.0115-0.8946-1.0779-0.63637-2.2358 1.1524-5.1674 1.2739-2.0878 1.6538-3.3 0.84902-2.7094-3.4399 2.5245-12.671 8.1218-15.13 9.1746-2.1328 0.91287-2.9115 0.8585-3.8468-0.26857-0.92156-1.1104-0.72061-1.988 0.93807-4.0966 1.161-1.4759 1.9512-2.8431 1.7562-3.0382s-3.6889 1.8527-7.764 4.5506c-11.587 7.6708-20.574 9.8856-26.881 6.6243-2.2085-1.1421-2.9789-1.1998-3.3351-0.25-0.31133 0.83031-1.3084 0.41574-3.0422-1.2648-2.8896-2.801-5.108-10.493-6.1695-21.39-0.53841-5.5275-1.1773-7.3962-3.2306-9.4496l-2.5595-2.5595-0.90864 2.4496c-0.55384 1.4931-0.5159 6.159 0.09717 11.95 1.4029 13.251-1.4773 42.939-5.0114 51.656-1.3943 3.4391-2.4924 32.344-1.2288 32.344 0.48822 0 1.9797-2.3625 3.3144-5.25 3.0372-6.5705 2.9665-6.4888 4.0845-4.721 0.51167 0.80907 0.96573 5.071 1.009 9.471 0.05728 5.822 0.32493 7.3874 0.98309 5.75 1.45-3.6073 2.4853-2.6474 3.7752 3.5 0.66361 3.1625 2.2932 8 3.6212 10.75l2.4146 5 0.07887-3.75c0.10913-5.1889 2.4812-4.8895 4.9188 0.62095 2.2839 5.1631 4.0509 6.5755 5.3415 4.2694 1.3823-2.4701 2.8031-1.9833 3.9685 1.3596 0.5752 1.65 1.661 3 2.4128 3 2.3238 0 3.6759-4.0201 3.8094-11.326 0.08431-4.6135 0.55428-7.1446 1.378-7.421 0.89032-0.29883 1.25 1.0328 1.25 4.6279 0 4.7204 0.60691 11.753 3.031 35.119 1.0824 10.434 0.26944 15.513-2.949 18.426-1.0488 0.9491-5.8837 3.4365-10.744 5.5274-8.529 3.669-8.8482 3.924-9.1405 7.2999-0.19315 2.2302 0.28579 4.0868 1.3214 5.1225 1.7831 1.7831 7.9984 2.2152 8.9815 0.62438 0.33992-0.55 2.0264-1 3.7477-1 2.5923 0 4.2399 1.2019 9.5959 7 3.5564 3.85 6.7452 7 7.0862 7s2.5667-2.0688 4.9462-4.5973zm-39.476-12.658c-0.83519-7.1061 0.91756-9.1012 11.108-12.644 7.4138-2.5776 8.1607-3.0978 10.323-7.1898 2.0889-3.9535 2.2637-5.2412 1.6841-12.411-0.71654-8.8641-2.1547-19.659-2.374-17.82-0.07744 0.64925-1.1533 1.3242-2.3908 1.5-2.1341 0.30309-2.2812 0.88631-2.8564 11.32-1.0765 19.528-5.081 23.847-24.092 25.989-7.3299 0.82578-10.802 3.4164-10.802 8.0605 0 4.6021 3.0494 6.4513 12.228 7.4152 3.9996 0.42003 7.3885 0.82479 7.5308 0.89947s-0.01919-2.2289-0.35886-5.119zm-23.245-2.2647c-0.23879-3.0025 0.1861-5.3521 1.2658-7 1.4829-2.2632 1.4852-2.4805 0.02532-2.4805-2.0848 0-7.4461 5.3774-7.4461 7.4685 0 1.658 4.2618 6.5315 5.7118 6.5315 0.44146 0 0.64091-2.0338 0.44321-4.5195zm101.9-9.9398c2.622-2.4526 6.0437-4.7337 7.6037-5.0692 8.6644-1.8632 11.137-6.0539 9.4128-15.954-0.59202-3.3996-1.0764-7.4943-1.0764-9.0992 0-2.7768-0.21057-2.9181-4.349-2.9181h-4.349l0.48132 4.2703c0.78481 6.9628-1.6088 15.902-5.3082 19.825-2.8942 3.0687-3.7526 3.4049-8.694 3.4049-15.786 0-15.298 7.8432 0.61515 9.885 0.49296 0.06325 3.0416-1.8917 5.6636-4.3443zm-21.06-2.984c0-4.8241 2.821-6.5567 10.675-6.5567 7.4212 0 10.971-1.4159 12.9-5.145 1.5172-2.9339 1.8272-9.6418 0.79387-17.18-0.54084-3.9459-0.87533-4.4739-2.3383-3.6909-0.93896 0.50252-2.5989 0.68049-3.6887 0.39549-1.1289-0.29522-2.542 0.15715-3.2841 1.0513-1.6784 2.0224-4.4788 1.9949-7.6376-0.07477-2.4103-1.5793-2.6212-1.5373-5.3354 1.0631l-2.8259 2.7074-2.0351-2.7938-2.0351-2.7938-2.7306 2.7306c-1.5018 1.5018-3.6204 2.7306-4.7078 2.7306-1.789 0-1.9101-0.4472-1.2727-4.6979 0.64471-4.2992 0.56388-4.5812-0.95239-3.3228-4.4127 3.6622-5.6617 11.622-3.4452 21.958 1.1072 5.1626 5.7352 10.72 12.57 15.093 4.265 2.7292 5.3504 2.4303 5.3504-1.4731zm33.418-149.16c2.2961-0.88109 1.9434-2.3003-0.41821-1.6828-1.1 0.28766-2 0.92053-2 1.4064 0 1.0455 0.319 1.0819 2.4182 0.27638zm-124.03-5.9725c0.33335-0.86871 0.36143-2.5562 0.0624-3.75s0.09721-3.0461 0.88055-4.1162c1.3906-1.8996 1.4803-1.8838 3.7946 0.66919 2.3655 2.6095 6.8758 4.6425 6.8642 3.0939-0.00339-0.44957-0.68707-2.1231-1.5193-3.7189-1.6447-3.1538-1.13-6.5985 0.98586-6.5985 0.72909 0 1.5846 0.675 1.9012 1.5 0.73558 1.9169 3.5295 1.9473 4.259 0.04638 0.30679-0.79949-0.15733-2.4746-1.0314-3.7225s-1.5892-3.0688-1.5892-4.0464c0-1.9181-1.0325-2.121-5.8698-1.1535-2.594 0.5188-3.2981 1.2862-4.1777 4.5527-1.2337 4.5817-4.1145 7.8233-6.9524 7.8233-1.6706 0-2.0164-0.69989-2.0997-4.25-0.16421-7.0013-1.0716-8.8229-5.0816-10.202-2.0151-0.69277-5.2737-2.2094-7.2413-3.3703-2.7179-1.6036-3.5774-1.7756-3.5774-0.71588 0 0.76716 0.5991 1.9939 1.3313 2.7262 3.4698 3.4698 2.8476 8.6449-1.6306 13.562-2.6295 2.8869-1.66 2.837 4.4436-0.22862 4.1371-2.0779 5.027-2.2383 5.5053-0.9919 0.31378 0.8177-0.15404 3.0136-1.0396 4.8798s-1.6101 3.7176-1.6101 4.1143c0 1.354 3.1285-1.8713 4.6282-4.7715 2.0554-3.9746 4.3718-2.0298 4.3718 3.6704 0 5.3991 2.95 8.7561 4.3921 4.9981zm-35.407-17.671c0.01149-3.5624-0.35973-4.75-1.4847-4.75-1.6352 0-1.8584 2.1978-0.84564 8.3271 0.83626 5.0612 2.3098 2.7994 2.3303-3.5771zm37.616-1.5035c0.60049-3.0024 0.45194-3.2465-1.9757-3.2465-2.4982 0-2.625 0.2522-2.625 5.2222 0 5.2008 0.0081 5.2141 1.9757 3.2465 1.0866-1.0866 2.2679-3.4366 2.625-5.2222zm-49.01 4.9008c-0.28984-0.46897 0.10147-1.7065 0.86957-2.75 1.3075-1.7764 1.4398-1.7858 2.075-0.14732 1.0536 2.7178 2.4644 2.0635 2.4644-1.143 0-2.8765-1.438-4.1006-4.8318-4.1132-0.91752-0.00339-2.9833-0.69194-4.5906-1.5301-3.176-1.6562-3.2022-1.64-6.1514 3.8086-1.1355 2.0978-1.2315 3.1926-0.3946 4.5 0.96952 1.5145 1.0486 1.4546 0.64044-0.48553-0.26422-1.256 0.18809-2.7557 1.0458-3.4676 1.2663-1.0509 1.9951-0.65139 4.4938 2.4632 1.6403 2.0447 3.4153 3.7176 3.9444 3.7176s0.72488-0.38371 0.43503-0.85268zm73.409-5.3794v-6.2321l-2.5 3.6791c-2.9586 4.3539-2.9872 4.5894-0.84501 6.9564 2.7097 2.9942 3.345 2.1578 3.345-4.4034zm-47.431 1.8114c0.41503-1.6536-0.10175-3.3802-1.6307-5.4482-2.1465-2.9034-2.3539-2.9677-5.0589-1.5689-2.7287 1.4111-4.8799 4.2074-4.8799 6.3436 0 1.112 5.069 2.8561 8.731 3.0041 1.5654 0.06328 2.4122-0.63204 2.8385-2.3306zm-35.611-9.9842c0.02305-0.49774-0.85809-0.0905-1.9581 0.90499s-1.9811 2.9777-1.9581 4.405c0.04026 2.4924 0.11765 2.4567 1.9581-0.90499 1.0539-1.925 1.935-3.9072 1.9581-4.405zm109.18 2.0201c-2.0877-8.2909-7.4549-14.14-9.6766-10.545-0.36374 0.58854-1.5708 1.4065-2.6822 1.8177-1.8001 0.66589-1.482 1.1348 2.9111 4.2909 2.7126 1.9488 6.0306 4.8966 7.3732 6.5506s2.6114 2.8588 2.8196 2.6773-0.12718-2.3376-0.74507-4.7914zm-30.006 0.14616c0.97977-1.8307 0.92052-1.839-1.5546-0.21724-1.4152 0.92731-2.5732 2.3644-2.5732 3.1934 0 1.2501 0.2654 1.2872 1.5546 0.21724 0.85502-0.70961 2.013-2.1467 2.5732-3.1934zm36.236-1.4008c0.34975-2.5518 0.63592-6.115 0.63592-7.9182 0-3.8254 0.84901-6.4422 2.0901-6.4422 0.48189 0 2.0163 2.25 3.4099 5s2.7869 5 3.0964 5 0.2492-2.9279-0.13402-6.5064c-0.49104-4.5853-0.33347-6.9441 0.53368-7.989 1.0427-1.2563 2.0674-0.45415 6.7146 5.2563 7.803 9.5883 7.6339 9.5045 6.8679 3.4044-1.4051-11.19-7.8767-23.33-18.255-34.247-3.1016-3.2624-5.5642-6.8714-5.9272-8.6865-0.69716-3.4858 1.1746-19.27 2.7821-23.461 0.75303-1.9633 0.69239-4.512-0.2161-9.0826-1.1668-5.8701-1.4416-6.3193-3.6127-5.9043-3.1688 0.60575-2.9693-0.322 1.1502-5.3493 4.1809-5.1023 4.2972-6.9081 0.92849-14.415l-2.5715-5.7301 2.0459-6.2321c2.4356-7.4192 8.87-16.801 18.537-27.027 13.306-14.076-4.961 1.3316-22.704 19.15-7.0204 7.0504-13.095 12.812-13.5 12.804-2.3551-0.04902-3.4029-1.8036-2.3037-3.8575 1.4858-2.7762 0.66562-2.6847-3.343 0.37283-3.3866 2.5831-6.5889 3.288-6.5889 1.4503 0-0.57731 0.68656-2.3773 1.5257-4 4.3064-8.3277-7.8505 2.6829-14.117 12.786-10.141 16.349-20.509 28.666-31.537 37.467-3.4548 2.757-4.803 4.6208-5.3145 7.3475-0.7613 4.0581-0.13521 5.4279 1.6602 3.6324 1.4579-1.4579 3.8086-1.5044 7.3811-0.14617 3.6791 1.3988 2.017 2.8977-4.1995 3.7869-3.5882 0.51327-4.9677 1.1788-5.2263 2.5214-0.27958 1.4518 0.22831 1.7852 2.4884 1.6334 1.5618-0.10491 4.1322-0.14305 5.7121-0.08477 2.4124 0.08899 2.6766 0.34194 1.6495 1.5795-0.67261 0.81044-2.8652 1.7391-4.8724 2.0637-10.684 1.7276-10.756 4.4628-0.1174 4.4628 9.6167 0 14.615 1.7472 15.54 5.4319 1.0057 4.0069-0.03919 5.3239-6.9126 8.7134-3.7373 1.843-7.0783 4.2935-8.0147 5.8786-3.2817 5.5556-10.672 4.4662-19.495-2.8737l-4.6496-3.868-3.6045 2.1089c-7.9696 4.6628-11.896 9.6726-11.896 15.18v2.6701l4.4945-3.6829c4.1159-3.3727 6.5055-3.9188 6.5055-1.4866 0 0.52437-2.475 2.5366-5.5 4.4717s-5.5 4.2579-5.5 5.1619c0 1.4064 0.32468 1.3488 2.25-0.39949 2.3315-2.1171 7.026-3.6962 8.0234-2.6988 0.31368 0.31368-0.68389 2.6975-2.2168 5.2973l-2.7871 4.727 2.8338 1.2544c6.0182 2.6639 23.897 0.50575 23.897-2.8846 0-0.53482-1.8-2.1636-4-3.6195-4.4797-2.9645-4.386-2.7916-2.958-5.4598 1.2282-2.2948 2.968-1.6273 9.458 3.629 2.2 1.7818 6.475 4.7098 9.5 6.5067 4.7929 2.847 6.5928 3.3198 14 3.6772l8.5 0.41019-3.6329-3.3223c-4.7416-4.3363-8.7308-9.9963-8.1562-11.572 0.74212-2.0356 2.9395-1.4324 4.7285 1.2979 0.91818 1.4013 3.7824 4.5619 6.365 7.0234 3.7401 3.5649 5.1919 4.3555 7.1346 3.8856 2.84-0.68692 8.061-4.2081 8.061-5.4367 0-0.46395-3.15-2.0794-7-3.5899-5.1392-2.0163-7-3.236-7-4.5884 0-2.441 0.56532-2.3634 9.0351 1.2408 5.7833 2.461 7.4149 2.814 8.0894 1.75 1.3402-2.1141 1.0134-10.133-0.68266-16.753-1.88-7.3382-0.93185-9.9245 1.7336-4.729 1.4446 2.8158 2.4802 3.6496 4.5328 3.6496 3.8529 0 10.754-3.626 12.261-6.4425 1.7592-3.2871 0.79925-5.2095-3.4977-7.0049-3.5617-1.4882-3.6946-2.0654-1.2152-5.2762 0.73771-0.95537 1.5697-0.90055 3.7946 0.25 1.5674 0.81051 5.067 1.4737 7.777 1.4737 2.8683 0 5.3863 0.55317 6.0259 1.3238 1.675 2.0182-0.60429 3.6762-5.0538 3.6762-3.5816 0-3.8 0.17788-3.8 3.0956 0 1.7026-0.9395 4.415-2.0878 6.0276-2.0002 2.809-10.447 7.8767-13.129 7.8767-0.8632 0-1.2856 1.5548-1.2905 4.75-0.00398 2.6125-0.37724 6.2125-0.82945 8-1.1101 4.3881 0.2731 4.2724 10.322-0.8632 7.7374-3.9544 8.6213-4.7774 14.683-13.67 2.0158-2.9571 2.4893-0.6511 0.75589 3.6811-0.91276 2.2812-3.4894 5.7139-5.7257 7.6282l-4.0662 3.4805 2.5859 2.7467c1.6362 1.7379 3.0152 4.8584 3.7548 8.4967 0.6429 3.1625 1.5258 5.75 1.9621 5.75s1.0794-2.0878 1.4291-4.6396zm-49.919-46.501c-2.9894-2.8273-6.6153-7.5523-8.0575-10.5-2.0667-4.2242-3.122-5.3595-4.9818-5.3595-3.6836 0-5.7765-4.0418-4.9493-9.5581 0.79892-5.3276 2.8722-5.5542 3.3753-0.36891 0.18244 1.8804 0.80004 3.9833 1.3724 4.673 1.3133 1.5824 6.6295 1.5647 9.4169-0.03143 2.7204-1.5578 10.355-10.115 17.725-19.868 8.887-11.76 7.9789-11.356 16.437-7.3156 3.9694 1.8962 7.2171 3.9025 7.2171 4.4585 0 1.4782-1.9878 1.2514-8.4162-0.9603l-5.7293-1.9712-2.3956 2.7212c-2.9122 3.308-3.0372 4.2212-0.5775 4.2212 2.2418 0 7.9062 5.4771 9.3079 9 1.5139 3.805 1.1585 14.091-0.64242 18.591-2.2029 5.5056-6.2701 7.6994-15.547 8.3858l-7.5 0.55495 4.5 2.4668c4.3067 2.3609 4.384 2.481 1.7994 2.7956-1.4853 0.1808-3.6613-0.18548-4.8356-0.81395-2.8299-1.5145-3.7464-0.4863-1.0612 1.1906 2.4791 1.5482 2.7224 2.8287 0.53752 2.8287-0.85792 0-4.0058-2.3132-6.9952-5.1405zm20.529-9.1659c4.4769-1.5382 5.9931-4.6892 6.0113-12.493 0.02141-9.1479-2.26-12.619-9.6466-14.677-1.7662-0.49201-2.9964 0.48315-6.7285 5.3332-2.5119 3.2644-6.6328 7.7536-9.1576 9.9761-4.9991 4.4004-5.0303 5.4431-0.29435 9.8426 3.3384 3.1013 13.616 4.148 19.816 2.0181zm-14.251-6.4477c-1.143-1.263-1.3098-2.2318-0.6021-3.4965 1.4182-2.5342 3.5707-2.1456 4.1232 0.74428 0.64943 3.3973-1.4513 5.0393-3.5211 2.7522zm-73.738 58.019c-0.00842-0.42058-0.44361-1.4397-0.96708-2.2647-1.4477-2.2816-4.6335 1.5284-5.4352 6.5l-0.64505 4 3.5313-3.7353c1.9422-2.0544 3.5244-4.0794 3.516-4.5zm-7.9847-1.5614c0-1.3421-2.8992 1.2279-4.1903 3.7145-0.96472 1.8581-0.79735 1.8212 1.5546-0.34207 1.4496-1.3334 2.6357-2.851 2.6357-3.3724zm2.5843-4.257c2.1214 2.9012 3.4487 0.85079 4.3965-6.7918 1.0918-8.8037 2.6523-10.664 17.769-21.182 3.082-2.1445 2.821-3.4722-0.68261-3.4722-1.918 0-3.1253 0.60725-3.4897 1.7551-0.30637 0.96531-3.0639 3.713-6.1279 6.106-6.382 4.9844-12.524 12.378-16.03 19.296-3.1256 6.1681-3.0706 7.8022 0.16044 4.7668 2.5307-2.3775 2.6081-2.3867 4.0037-0.47806zm48.688-22.312c2.3252-2.1264 5.722-4.6294 7.5484-5.5623 4.2375-2.1644 2.9159-4.1886-3.348-5.128-5.2574-0.78839-19.51 0.98805-23.125 2.8823l-2.5985 1.3615 2.8755 3.0923c3.1674 3.4062 9.8408 7.2202 12.633 7.2202 0.98293 0 3.6896-1.7398 6.0148-3.8661zm183.96-5.1294c2.0748-3.5726 3.7723-7.0748 3.7723-7.7828 0-0.99009-2.5968-1.222-11.25-1.0045l-11.25 0.28275-0.29935 6.9105c-0.20983 4.844 0.08921 7.1639 1 7.7579 0.71464 0.46607 4.2143 0.73135 7.777 0.58952l6.4777-0.25788 3.7723-6.4955zm-199.23-9.3344c1.375-0.64356 3.5442-3.1951 4.8205-5.6701 1.9594-3.7998 2.2293-5.4536 1.7346-10.628-0.32221-3.3705-0.32262-6.8141-9.2e-4 -7.6524s4.2361-4.6055 8.6987-8.3714c9.8293-8.2948 18.484-18.331 25.444-29.505 6.3132-10.135 7.0351-11.843 5.0054-11.843-0.83134 0-2.9709 2.5875-4.7546 5.75s-4.7812 7.775-6.6612 10.25c-5.3995 7.1083-20.148 22.006-27.941 28.224-6.6557 5.3105-22.664 15.577-26.589 17.053-1.5029 0.56491-1.5787 1.0403-0.54875 3.4392 4.3959 10.239 11.506 13.3 20.793 8.9538zm201.04-6.8004c0.93709-3.4801 2.94-14.222 2.9591-15.87 0.00318-0.275-1.2317-0.51235-2.7442-0.52746s-6.0034-0.35489-9.9797-0.75509l-7.2297-0.72763-0.71188 2.7551c-0.39153 1.5153-0.73818 6.1301-0.77033 10.255l-0.05845 7.5 4.5 0.59981c2.475 0.32989 6.3952 0.66739 8.7115 0.75 4.1278 0.14721 4.2335 0.0682 5.3236-3.9801zm-98.368-3.4615c7.965-4.1868 13.236-8.9131 17.777-15.94 6.0359-9.3399 6.5746-15.855 3.0982-37.468-2.6505-16.478-1.4588-30.193 3.4755-40 1.7344-3.447 1.7268-3.5257-0.49801-5.1984-2.5708-1.9328-5.045-1.4766-10.555 1.9462-5.163 3.2073-16.996 17.354-20.704 24.752-4.0202 8.0213-3.7677 9.1485 0.86533 3.8636 4.7213-5.3857 8.8733-8.9574 8.8733-7.6331 0 0.4531-1.2784 2.2234-2.8408 3.9341-5.6843 6.2235-10.159 12.069-10.159 13.272 0 2.0861 1.5017 0.83315 8.0136-6.6863 3.4532-3.9875 6.4378-7.25 6.6325-7.25 1.01 0 0.13213 2.8686-1.3961 4.5622-2.0711 2.2952-6.1268 7.8327-8.5602 11.688-3.2274 5.1128-0.22334 2.6897 5.2741-4.2542 3.0051-3.7958 5.6505-6.7148 5.8786-6.4867 0.4896 0.4896-5.0355 9.4369-9.0372 14.635-4.5957 5.9694-3.2052 5.6892 3.1947-0.6439 3.3-3.2656 6-5.4891 6-4.9411s-3.586 5.0338-7.9689 9.9687-7.9829 9.3099-8 9.7224c-0.07742 1.867 2.4556 0.37159 6.7753-4 2.5815-2.6125 5.8071-5.65 7.168-6.75 2.3446-1.8951 2.3236-1.7902-0.40036 2-1.5811 2.2-4.6588 5.8698-6.8394 8.155-5.499 5.7631-4.3114 7.485 1.5836 2.2961 6.8433-6.0237 6.9368-4.1183 0.14717 2.9998-6.5103 6.8254-6.3318 8.2972 0.22579 1.8614 6.2784-6.1618 6.4272-3.8751 0.17776 2.7327-4.421 4.6746-5.559 6.6401-6.5459 11.307-1.7652 8.3459-1.7083 21.148 0.09392 21.148 0.77932 0 4.4918-1.6163 8.25-3.5918zm-117.27-9.2371c7.9756-4.2442 9.6758-6.221 7.8562-9.1346-0.87334-1.3984-0.94379-2.7246-0.24271-4.5686 0.5433-1.429 0.98782-2.7727 0.98782-2.986s-2.0352-0.2696-4.5226-0.12508c-3.8795 0.2254-5.1996 0.92962-9.2844 4.9529-2.619 2.5796-5.4087 4.6902-6.1993 4.6902s1.8123-3.0561 5.7844-6.7913 7.2219-7.3049 7.2219-7.9326c0-2.189-4.0899-2.5928-5.5239-0.54533-2.241 3.1995-10.396 9.4366-11.471 8.7726-0.55314-0.34187 0.86506-2.0574 3.1516-3.8124 4.5329-3.4792 8.5439-8.3234 7.6401-9.2272-0.313-0.313-3.3341 1.9909-6.7136 5.1197s-6.4449 5.3884-6.812 5.0213 2.1874-3.3175 5.6767-6.5564l6.3442-5.8889-0.56399-6.2198c-0.37577-4.1441-1.1754-6.8141-2.3961-8.0008-2.1456-2.0858-41.672-25.927-42.168-25.434-0.18475 0.1837 1.5388 3.1564 3.8301 6.606 7.4243 11.178 9.8029 17.419 12.535 32.889 2.6198 14.835 10.553 28.289 18.962 32.158 4.8288 2.222 6.8207 1.8479 15.907-2.9874zm26.052-18.369c10.776-9.1544 22.53-21.709 27.181-29.032 1.3028-2.0516 2.3688-3.914 2.3688-4.1387s-1.6875-0.7156-3.75-1.0908-8.475-2.8358-14.25-5.4678c-10.291-4.6901-19.29-7.0298-20.363-5.294-0.29727 0.48099 2.4753 1.8942 6.1613 3.1404 9.0796 3.0698 11.694 4.7829 10.146 6.6479-0.82643 0.99578-3.3644 1.4378-8.3169 1.4484-7.5511 0.01622-12.116 1.4261-7.5754 2.34 1.3463 0.27098 3.7539 0.4144 5.3502 0.31871 5.1216-0.30702 3.7673 1.7246-3.7974 5.6964-7.8644 4.1292-16.871 11.708-14.753 12.414 0.68603 0.22868 3.0662-0.7879 5.2893-2.2591 3.9779-2.6324 6.2133-2.6912 4.3231-0.11372-4.4093 6.0125-8.3459 12.041-8.0537 12.333 0.19502 0.19503 2.0452-0.79265 4.1114-2.1948s4.144-2.5494 4.6172-2.5494c1.3519 0 1.0138 2.3897-0.86239 6.0964-0.94756 1.872-1.7756 5.5185-1.8402 8.1033-0.14454 5.7887-0.54918 5.9735 14.013-6.3974zm191.69 8.4477c0.59861-1.5125 1.2365-4.775 1.4175-7.25 0.18102-2.475 0.09891-3.4882-0.18245-2.2516-0.54807 2.4087-1.6315 2.7951-10.547 3.7615-5.1701 0.56042-5.7663 0.87992-6.7138 3.5979-1.2145 3.4839-0.92808 3.6714 6.3877 4.1825 2.75 0.19212 5.7986 0.43042 6.7748 0.52955 1.1002 0.11174 2.1884-0.86503 2.8631-2.5698zm-32.409-4.564c-0.2006-0.60178-1.8638-1.4826-3.6961-1.9574-3.6736-0.95193-4.9902 0.08736-5.0173 3.9607-0.0151 2.159 0.04766 2.1678 4.5314 0.64009 2.5007-0.85207 4.3826-2.0416 4.182-2.6434zm13.289 0.78587c6.7109-10.858 0.16777-21.811-8.0943-13.549-3.1393 3.1393-3.7326 6.8176-1.8838 11.68 2.3178 6.0962 6.8416 6.9433 9.9781 1.8685zm13.108-6.4719c1.3825 0 1.871-0.72233 1.8597-2.75-0.02995-5.3784-1.3894-5.7826-5.8611-1.7427-4.9626 4.4834-5.2524 5.9684-0.99859 5.1177 1.7188-0.34375 3.9688-0.625 5-0.625zm92.677-4.3976c4.2163-2.1804 6.0108-4.718 8.6226-12.194 8.5997-24.614 6.4557-45.524-6.2782-61.23-4.1387-5.1044-7.6155-7.0171-19.472-10.712-7.9024-2.4626-9.85-2.6936-18.627-2.21-11.552 0.63655-16.182 2.4205-23.705 9.1334-5.8119 5.1861-13.26 15.945-17.478 25.247-1.5546 3.4286-5.3429 13.729-8.4184 22.889-5.1292 15.277-5.4618 16.799-4.0192 18.393 0.86498 0.95578 1.5727 3.3899 1.5727 5.409 0 6.9036 1.4995 3.6676 4.3252-9.3339 4.7411-21.815 11.043-34.59 22.791-46.203 11.109-10.981 21.337-14.8 30.385-11.344 6.1613 2.353 10.793 8.3232 12.453 16.053 0.70894 3.3 1.7109 7.575 2.2266 9.5s1.2984 11.6 1.7395 21.5c0.8568 19.232 1.6836 22.669 6.0212 25.028 3.2709 1.779 4.5398 1.791 7.8603 0.07389zm-297.8-4.1934c0-0.19039-0.675-0.08715-1.5 0.22943s-1.5 1.0326-1.5 1.5911c0 0.5853 0.63541 0.48812 1.5-0.22943 0.825-0.68469 1.5-1.4007 1.5-1.5911zm0.39055-10.77c4.4342-3.6292 4.6196-3.9699 3.0839-5.6668-1.7458-1.9291-15.149-9.9718-16.618-9.9718-0.48321 0-2.7862-0.85431-5.1176-1.8985-4.8595-2.1763-25.247-9.9554-28.239-10.775-1.1-0.30132 0.45266 1.1105 3.4503 3.1373 7.03 4.7532 22.74 13.42 25.649 14.15 3.5979 0.90301 5.4598 3.763 6.7007 10.293 0.63685 3.3511 1.505 6.0929 1.9291 6.0929s0.77289 1.0125 0.77494 2.25c0.00343 2.0617 0.15712 1.9989 1.8363-0.75 1.0079-1.65 3.9556-4.7376 6.5505-6.8614z"/>
</svg>
